<?xml version="1.0" encoding="UTF-8" standalone="no"?>
<!-- Created with Inkscape (http://www.inkscape.org/) -->

<svg
   xmlns:dc="http://purl.org/dc/elements/1.1/"
   xmlns:cc="http://creativecommons.org/ns#"
   xmlns:rdf="http://www.w3.org/1999/02/22-rdf-syntax-ns#"
   xmlns:svg="http://www.w3.org/2000/svg"
   xmlns="http://www.w3.org/2000/svg"
   xmlns:xlink="http://www.w3.org/1999/xlink"
   xmlns:sodipodi="http://sodipodi.sourceforge.net/DTD/sodipodi-0.dtd"
   xmlns:inkscape="http://www.inkscape.org/namespaces/inkscape"
   width="640"
   height="360"
   viewBox="0 0 169.33333 95.250003"
   version="1.1"
   id="svg8"
   inkscape:version="0.92.5 (2060ec1f9f, 2020-04-08)"
   sodipodi:docname="bo-nedaber.svg"
   inkscape:export-filename="/home/noam/Downloads/bo-nedaber.png"
   inkscape:export-xdpi="96"
   inkscape:export-ydpi="96">
  <defs
     id="defs2">
    <linearGradient
       inkscape:collect="always"
       id="linearGradient898">
      <stop
         style="stop-color:#00ffff;stop-opacity:1;"
         offset="0"
         id="stop894" />
      <stop
         style="stop-color:#00ffff;stop-opacity:0;"
         offset="1"
         id="stop896" />
    </linearGradient>
    <linearGradient
       inkscape:collect="always"
       xlink:href="#linearGradient898"
       id="linearGradient900"
       x1="23.8125"
       y1="217.62498"
       x2="23.812498"
       y2="302.29166"
       gradientUnits="userSpaceOnUse"
       gradientTransform="translate(1.7529297e-6,-4.1669923e-6)" />
  </defs>
  <sodipodi:namedview
     id="base"
     pagecolor="#ffffff"
     bordercolor="#666666"
     borderopacity="1.0"
     inkscape:pageopacity="0.0"
     inkscape:pageshadow="2"
     inkscape:zoom="1.4"
     inkscape:cx="394.19191"
     inkscape:cy="136.26898"
     inkscape:document-units="px"
     inkscape:current-layer="layer1"
     showgrid="true"
     units="px"
     inkscape:window-width="1920"
     inkscape:window-height="1011"
     inkscape:window-x="0"
     inkscape:window-y="0"
     inkscape:window-maximized="1">
    <inkscape:grid
       type="xygrid"
       id="grid890" />
  </sodipodi:namedview>
  <metadata
     id="metadata5">
    <rdf:RDF>
      <cc:Work
         rdf:about="">
        <dc:format>image/svg+xml</dc:format>
        <dc:type
           rdf:resource="http://purl.org/dc/dcmitype/StillImage" />
        <dc:title></dc:title>
      </cc:Work>
    </rdf:RDF>
  </metadata>
  <g
     inkscape:label="Layer 1"
     inkscape:groupmode="layer"
     id="layer1"
     transform="translate(0,-201.74998)">
    <rect
       style="color:#000000;display:inline;overflow:visible;visibility:visible;fill:url(#linearGradient900);fill-opacity:1;fill-rule:evenodd;stroke:none;stroke-width:0.26458332;stroke-linecap:butt;stroke-linejoin:miter;stroke-miterlimit:4;stroke-dasharray:none;stroke-dashoffset:0;stroke-opacity:1;marker:none;enable-background:accumulate"
       id="rect892"
       width="169.33333"
       height="95.25"
       x="0"
       y="201.74998" />
    <path
       style="fill:#0d0000;fill-opacity:1;stroke-width:0.18273382"
       d="m 112.49581,284.10844 c -5.50349,-1.26123 -10.81524,-4.01943 -13.069148,-6.78635 -0.45127,-0.55398 -0.88486,-1.12226 -0.96353,-1.26282 -0.0927,-0.16573 -0.84754,-0.3485 -2.14701,-0.51989 C 90.7316,274.80282 85.45558,272.97107 81.7591,270.4854 c -2.47431,-1.66383 -5.12127,-4.20843 -6.17216,-5.93349 -0.29354,-0.48185 -0.81447,-0.55168 -2.44663,-0.32796 -0.78694,0.10786 -0.90967,0.20053 -1.66216,1.25505 -2.10099,2.94428 -6.34905,5.59227 -11.83249,7.37567 -2.32628,0.75659 -5.53158,1.48591 -6.53044,1.48591 -2.10429,0 -2.73917,-2.15181 -1.03032,-3.49212 0.85215,-0.66837 1.74166,-2.8472 3.09634,-7.58436 l 0.26731,-0.93475 -1.7645,-0.68755 c -8.74639,-3.40809 -14.691462,-9.31944 -16.611113,-16.51691 -0.390042,-1.4624 -0.470143,-2.17213 -0.476795,-4.2246 -0.0086,-2.6497 0.175279,-3.80621 0.974271,-6.12804 1.553172,-4.51345 4.908437,-8.5243 9.821117,-11.74005 10.45826,-6.84579 25.89556,-7.98036 38.32362,-2.81659 6.64182,2.75963 11.784992,7.25117 14.080662,12.29669 l 0.548198,1.20485 3.10648,0.20924 c 8.35448,0.56273 15.08372,3.15478 20.12833,7.75329 3.42086,3.11836 5.28088,6.18883 6.11426,10.09327 0.34385,1.61094 0.31127,5.0387 -0.0625,6.57842 -1.39178,5.73302 -5.60971,10.5848 -11.97829,13.77836 -1.31755,0.66069 -2.11514,1.00998 -3.81058,1.66875 l -0.39008,0.15157 0.34511,1.24598 c 0.95597,3.45142 1.65253,5.0316 2.74247,6.2214 0.98945,1.0801 0.90975,2.194 -0.20405,2.85194 -0.68282,0.40335 -1.53242,0.36774 -3.83933,-0.16093 z m -0.73093,-3.79701 c 0,-0.0326 -0.20864,-0.66993 -0.46363,-1.41618 -0.65701,-1.92277 -1.54645,-5.51635 -1.54645,-6.2481 0,-0.89278 0.52245,-1.28109 2.83238,-2.10516 12.10423,-4.31822 17.18369,-14.06052 11.83306,-22.69557 -1.05736,-1.70641 -3.70912,-4.37985 -5.52875,-5.57393 -3.06491,-2.01127 -6.8071,-3.52709 -10.56968,-4.28138 -1.66281,-0.33334 -6.56382,-0.85605 -6.69513,-0.71406 -0.0305,0.033 0.013,0.47108 0.0967,0.9736 0.50264,3.01915 -0.27422,7.38604 -1.885458,10.59856 -3.2343,6.44864 -10.643542,11.98298 -19.000722,14.19261 -0.8794,0.23252 -1.59892,0.49672 -1.59892,0.58712 0,0.32633 2.71212,2.82345 4.03898,3.71881 3.91262,2.64021 9.46473,4.49015 14.691242,4.89507 2.162308,0.16752 2.615788,0.39576 3.268078,1.64486 1.16374,2.22851 4.4204,4.4318 8.79235,5.94847 1.47618,0.51209 1.73598,0.58322 1.73598,0.47528 z M 59.59437,269.22835 c 4.93948,-1.84813 8.09544,-4.01766 9.60547,-6.60318 0.40233,-0.6889 0.89099,-1.33789 1.0859,-1.4422 0.19492,-0.10432 1.17325,-0.26768 2.17406,-0.36304 6.01763,-0.57337 10.98298,-2.14215 15.3708,-4.85634 5.03446,-3.11419 8.344892,-7.22882 9.708822,-12.06737 0.53883,-1.9115 0.58959,-5.59587 0.10169,-7.38154 C 95.77704,229.69236 88.8707,224.13345 79.235,221.69959 c -12.25761,-3.09612 -25.92253,-0.26061 -33.51217,6.95386 -5.399426,5.13253 -7.053027,11.3536 -4.664309,17.54775 0.788689,2.04514 2.195189,4.06624 4.266129,6.13031 2.88897,2.87938 6.16001,4.84648 10.906,6.55852 2.47819,0.89397 2.90721,1.2288 2.9063,2.26827 -7.3e-4,0.84059 -1.06871,4.90544 -1.89968,7.23037 l -0.63358,1.77271 0.58167,-0.12467 c 0.31992,-0.0686 1.40397,-0.43232 2.40901,-0.80836 z"
       id="path880"
       inkscape:connector-curvature="0" />
    <path
       style="opacity:1;vector-effect:none;fill:#ffffff;fill-opacity:1;stroke:#ffffff;stroke-width:5.39932537;stroke-linecap:round;stroke-linejoin:round;stroke-miterlimit:4;stroke-dasharray:none;stroke-dashoffset:0;stroke-opacity:1"
       d="m 214.77435,257.6957 c 0,-0.12274 0.9549,-3.04814 2.12201,-6.5009 2.39497,-7.08525 5.22809,-17.38678 6.41848,-23.3383 1.44097,-7.20427 0.64206,-7.93025 -15.68335,-14.25173 -13.94653,-5.40032 -24.30462,-11.80136 -34.2565,-21.16964 -13.07629,-12.30947 -19.75967,-24.56459 -21.43444,-39.30376 -2.05863,-18.11729 5.02649,-35.39116 20.72232,-50.52198 38.95089,-37.548761 116.75996,-42.257829 165.68291,-10.027264 6.54606,4.312562 16.93783,14.165834 21.13833,20.042974 3.82127,5.34653 7.73917,13.52372 9.19625,19.19382 1.45936,5.67902 1.43443,18.92842 -0.0482,25.60178 -1.3482,6.0684 -6.01381,16.33767 -10.32622,22.72858 -4.43158,6.56752 -14.97424,16.73298 -22.742,21.92834 -16.67221,11.15098 -34.53185,17.38992 -58.64676,20.48718 -4.91071,0.63072 -9.64448,1.32285 -10.5195,1.53806 -0.94145,0.23155 -2.86847,2.33049 -4.72037,5.1415 -3.92979,5.96504 -11.07708,12.69568 -17.59098,16.56551 -8.39143,4.98525 -29.31203,13.46841 -29.31203,11.88583 z"
       id="path904"
       inkscape:connector-curvature="0"
       transform="matrix(0.26458333,0,0,0.26458333,0,201.74998)" />
    <path
       style="opacity:1;vector-effect:none;fill:#ffffff;fill-opacity:1;stroke:#ffffff;stroke-width:5.39932537;stroke-linecap:round;stroke-linejoin:round;stroke-miterlimit:4;stroke-dasharray:none;stroke-dashoffset:0;stroke-opacity:1"
       d="m 414.06006,294.09526 c -15.96481,-6.12549 -25.86772,-13.12856 -31.66932,-22.3957 -1.03469,-1.65276 -2.57916,-3.37851 -3.43216,-3.83502 -0.85299,-0.45651 -6.08993,-1.40436 -11.63764,-2.10632 -26.39703,-3.34009 -46.70945,-11.92162 -61.73434,-26.08136 -5.04738,-4.75674 -5.76717,-5.70784 -4.64285,-6.13479 0.73183,-0.27791 5.50917,-1.84262 10.61631,-3.47713 30.56906,-9.78346 55.65147,-29.97458 66.78122,-53.7583 5.03235,-10.75388 7.63649,-24.49703 6.76641,-35.70922 -0.26675,-3.4375 -0.20981,-6.24691 0.12654,-6.24313 2.75736,0.031 20.65005,2.3493 25.06555,3.24767 12.315,2.50557 27.94385,8.79691 37.86905,15.24404 2.45625,1.59551 7.23694,5.55926 10.62375,8.80832 13.21403,12.6766 18.83891,24.36167 18.83891,39.13581 0,13.9329 -5.36683,25.91773 -16.66784,37.22142 -8.99968,9.00181 -19.23288,15.23268 -35.72667,21.75353 -9.41605,3.72265 -10.46438,4.56906 -10.45725,8.44304 0.006,3.10774 3.24016,16.54027 5.67607,23.57255 0.80377,2.32043 1.46141,4.32935 1.46141,4.46428 0,0.61785 -2.24495,0.004 -7.85715,-2.14969 z"
       id="path906"
       inkscape:connector-curvature="0"
       transform="matrix(0.26458333,0,0,0.26458333,0,201.74998)" />
    <rect
       style="color:#000000;display:inline;overflow:visible;visibility:visible;fill:#ffffff;fill-rule:evenodd;stroke:#000000;stroke-width:0.2886363;stroke-linecap:butt;stroke-linejoin:miter;stroke-miterlimit:4;stroke-dasharray:none;stroke-dashoffset:0;stroke-opacity:0;marker:none;enable-background:accumulate;fill-opacity:0"
       id="rect927"
       width="95.249977"
       height="95.249977"
       x="35.639"
       y="201.75"
       inkscape:export-filename="/home/noam/Downloads/bo-nedaber-botpic.png"
       inkscape:export-xdpi="96"
       inkscape:export-ydpi="96" />
  </g>
</svg>
